<svg width="14" height="16" viewBox="0 0 14 16" fill="none" xmlns="http://www.w3.org/2000/svg"><path fill-rule="evenodd" clip-rule="evenodd" d="M7 12207e-8C4.23858 12207e-8 2 2.2387 2 5.00012V7.94734C2 7.9967 1.98539 8.04495 1.95801 8.08602L.25488 10.6407C.08868 10.89.0 11.1829.0 11.4825.0 12.3207.67945 13.0001 1.51759 13.0001H12.4824C13.3206 13.0001 14 12.3207 14 11.4825 14 11.1829 13.9113 10.89 13.7451 10.6407L12.042 8.08602C12.0146 8.04495 12 7.9967 12 7.94734V5.00012C12 2.2387 9.7614 12207e-8 7 12207e-8zM3.5 5.00012C3.5 3.06712 5.067 1.50012 7 1.50012 8.933 1.50012 10.5 3.06712 10.5 5.00012V7.94734C10.5 8.29284 10.6023 8.6306 10.7939 8.91807L12.497 11.4727C12.499 11.4756 12.5 11.479 12.5 11.4825 12.5 11.4848 12.4995 11.4874 12.4995 11.4874L12.4989 11.4891C12.4989 11.4891 12.497 11.4928 12.4948 11.4949 12.4927 11.4971 12.489 11.499 12.489 11.499 12.489 11.499 12.4862 11.5001 12.4824 11.5001H1.51759C1.51378 11.5001 1.51097 11.499 1.51097 11.499 1.51097 11.499 1.50729 11.4971 1.50515 11.4949 1.50302 11.4928 1.50107 11.4891 1.50107 11.4891 1.50107 11.4891 1.5 11.4863 1.5 11.4825 1.5 11.479 1.50103 11.4756 1.50295 11.4727L3.20609 8.91807C3.39773 8.6306 3.5 8.29284 3.5 7.94734V5.00012z" fill="#afafb3"/><path d="M8.98458 14.2496C8.86177 15.2364 8.02007 16.0001 6.99999 16.0001 5.97991 16.0001 5.13821 15.2364 5.0154 14.2496 4.99835 14.1126 5.11192 14.0001 5.24999 14.0001h3.5C8.88806 14.0001 9.00159 14.1126 8.98458 14.2496z" fill="#afafb3"/></svg>