<svg width="15" height="15" viewBox="0 0 15 15" fill="none" xmlns="http://www.w3.org/2000/svg"><path fill-rule="evenodd" clip-rule="evenodd" d="M10.4999 6C10.4999 6.59094 10.3835 7.17611 10.1573 7.72207 9.93121 8.26804 9.59971 8.76411 9.18191 9.182 8.76401 9.5998 8.26794 9.9313 7.72197 10.1575 7.17601 10.3836 6.59085 10.5 5.9999 10.5 5.40895 10.5 4.82379 10.3836 4.27782 10.1575 3.73186 9.9313 3.23578 9.5998 2.81792 9.182 2.40005 8.76411 2.06859 8.26804 1.84244 7.72207 1.61629 7.17611 1.4999 6.59094 1.4999 6 1.4999 4.80652 1.974 3.66193 2.81792 2.81802 3.66183 1.9741 4.80642 1.5 5.9999 1.5 7.19337 1.5 8.33796 1.9741 9.18191 2.81802 10.0258 3.66193 10.4999 4.80652 10.4999 6zM9.67991 10.74C8.47428 11.676 6.95727 12.1173 5.4377 11.9741 3.91813 11.831 2.51024 11.1141 1.50065 9.9694.491052 8.82471-.0443482 7.33829.00343178 5.81275.0512218 4.2872.678602 2.8372 1.75785 1.75795 2.83711.678699 4.2871.0513194 5.81265.0035294 7.3382-.0442536 8.82461.491149 9.96931 1.50075 11.114 2.51034 11.8309 3.91823 11.974 5.4378 12.1172 6.95736 11.6759 8.47437 10.7399 9.68L13.7799 12.72C13.8536 12.7887 13.9127 12.8715 13.9537 12.9635 13.9947 13.0555 14.0167 13.1548 14.0185 13.2555 14.0203 13.3562 14.0017 13.4562 13.964 13.5496 13.9263 13.643 13.8701 13.7278 13.7989 13.799 13.7277 13.8703 13.6429 13.9264 13.5495 13.9641 13.4561 14.0018 13.3561 14.0204 13.2554 14.0186 13.1547 14.0168 13.0553 13.9948 12.9634 13.9538 12.8714 13.9128 12.7886 13.8537 12.7199 13.78L9.67991 10.74z" fill="#afafb3"/></svg>